<svg width="24" height="24" fill="none" xmlns="http://www.w3.org/2000/svg"><circle cx="12" cy="12" r="12" fill="#FF0420"/><path d="M8.5 15.2c-.72 0-1.3-.17-1.76-.5-.45-.35-.68-.83-.68-1.46 0-.14.02-.3.05-.49.08-.43.19-.95.33-1.56.4-1.65 1.46-2.48 3.16-2.48.46 0 .88.08 1.24.24.37.15.65.38.87.69.21.3.32.66.32 1.08 0 .12-.02.28-.05.47-.09.54-.2 1.06-.33 1.56-.21.82-.57 1.44-1.09 1.85-.51.4-1.2.6-2.06.6zm.13-1.3c.33 0 .62-.1.85-.3.24-.2.41-.5.52-.91.14-.57.24-1.06.31-1.48.03-.12.04-.25.04-.39 0-.55-.28-.82-.85-.82-.34 0-.63.1-.87.3-.23.2-.4.5-.5.91-.11.4-.22.9-.33 1.48-.02.12-.04.24-.04.38 0 .55.29.83.87.83zM12.45 15.1c-.07 0-.12-.02-.16-.06-.03-.05-.04-.1-.03-.16l1.24-5.86c.01-.07.05-.12.1-.16.06-.05.11-.07.18-.07h2.37c.67 0 1.2.14 1.6.41.41.28.62.68.62 1.2 0 .15-.02.31-.06.47-.15.7-.45 1.2-.91 1.53-.45.33-1.07.5-1.86.5h-1.21l-.42 1.97c-.01.07-.04.12-.1.16-.05.05-.11.07-.17.07h-1.19zm3.19-3.44c.25 0 .47-.07.66-.21.19-.14.32-.34.38-.6.02-.1.03-.19.03-.27 0-.17-.05-.3-.15-.4-.1-.1-.28-.14-.53-.14h-1.08l-.34 1.62h1.03z" fill="#fff"/></svg>