<svg width="24" height="24" xmlns="http://www.w3.org/2000/svg" fill="none" viewBox="0 0 60 60"><linearGradient id="a" gradientUnits="userSpaceOnUse" x1="-10.965" x2="50.975" y1="4.931" y2="42.836"><stop offset="0" stop-color="#a229c5"/><stop offset="1" stop-color="#7b3fe4"/></linearGradient><rect fill="#8247e5" height="60" rx="30" width="60"/><rect fill="url(#a)" height="60" rx="30" width="60"/><path clip-rule="evenodd" d="M39.473 14.237a1.915 1.915 0 0 0-1.846 0l-8.55 4.706a1.88 1.88 0 0 0-.977 1.645v3.06l3.8 2.117v-4.07l6.65-3.66 6.65 3.66v7.197l-6.65 3.66-16.177-8.903a1.916 1.916 0 0 0-1.846 0l-8.55 4.705A1.88 1.88 0 0 0 11 30v9.412c0 .683.374 1.313.977 1.645l8.55 4.706a1.915 1.915 0 0 0 1.846 0l8.55-4.706a1.88 1.88 0 0 0 .977-1.645v-3.06l-3.8-2.117v4.07l-6.65 3.66-6.65-3.66v-7.197l6.65-3.66 16.177 8.903a1.916 1.916 0 0 0 1.846 0l8.55-4.706A1.88 1.88 0 0 0 49 30v-9.412a1.88 1.88 0 0 0-.977-1.645z" fill="#fff" fill-rule="evenodd"/></svg>