<svg width="423" height="423" fill="none" xmlns="http://www.w3.org/2000/svg">
  <rect width="423" height="423" rx="211.5" fill="#B02A42" />
  <path fill-rule="evenodd" clip-rule="evenodd" d="M229.414 214.741a4.027 4.027 0 014.59-3.988l41.954 5.937a4.024 4.024 0 003.8-1.592l32.003-43.285a4.029 4.029 0 00-.85-5.638l-3.651-2.691a4.03 4.03 0 01-.711-5.815l4.887-5.892a4.029 4.029 0 00-.711-5.815l-3.653-2.692a4.024 4.024 0 00-5.633.861l-4.874 6.646a4.025 4.025 0 01-5.633.861l-3.856-2.841a4.026 4.026 0 00-5.622.845l-18.208 24.583a4.024 4.024 0 01-3.856 1.582l-25.939-4.054a4.026 4.026 0 01-3.291-3.034l-15.603-64.586a4.026 4.026 0 00-5.037-2.922l-2.869.835a4.028 4.028 0 00-2.772 4.879l4.587 17.69a4.03 4.03 0 01-2.788 4.884l-6.78 1.943a4.026 4.026 0 01-4.997-2.825l-4.798-17.836a4.026 4.026 0 00-4.868-2.86l-3.232.812a4.028 4.028 0 00-2.913 4.934l13.082 49.589c.491 1.861-1.077 3.62-2.981 3.342l-41.139-5.99a4.023 4.023 0 00-3.816 1.59l-31.996 43.276a4.03 4.03 0 00.849 5.639l3.851 2.837a4.029 4.029 0 01.858 5.626l-4.891 6.67a4.028 4.028 0 00.858 5.625l3.656 2.694a4.024 4.024 0 005.767-1.055l4.339-6.706a4.024 4.024 0 015.726-1.084l3.005 2.156a4.024 4.024 0 005.572-.862l18.954-25.391a4.022 4.022 0 013.772-1.581l24.484 3.355a4.026 4.026 0 013.479 3.99v14.723a4.026 4.026 0 01-2.279 3.629l-45.738 22.034a4.027 4.027 0 00-2.279 3.629v48.822a4.028 4.028 0 004.026 4.028h4.35a4.026 4.026 0 014.026 4.027v9.252a4.026 4.026 0 004.026 4.027h4.35a4.027 4.027 0 004.026-4.027v-8.559a4.026 4.026 0 014.026-4.028h4.35a4.027 4.027 0 004.026-4.028v-25.283c0-1.548.887-2.96 2.282-3.63l27.668-13.295a4.02 4.02 0 013.486 0l27.668 13.295a4.028 4.028 0 012.283 3.63v25.283a4.026 4.026 0 004.026 4.028h4.35a4.027 4.027 0 014.026 4.028v8.559a4.026 4.026 0 004.025 4.027h4.351a4.026 4.026 0 004.025-4.027v-8.559a4.027 4.027 0 014.026-4.028h5.039a4.026 4.026 0 004.026-4.028v-48.853c0-1.531-.867-2.93-2.239-3.61l-45.818-22.702a4.029 4.029 0 01-2.239-3.609v-7.401zm0-26.951a4.026 4.026 0 014.629-3.982l29.491 4.472a4.025 4.025 0 003.839-1.585l16.221-21.919a4.025 4.025 0 015.522-.919l3.572 2.466 2.873 1.966a4.03 4.03 0 01.968 5.714l-21.595 29.32a4.024 4.024 0 01-3.804 1.599l-38.253-5.405a4.027 4.027 0 01-3.463-3.988v-7.739zm-70.623 1.233a4.028 4.028 0 00-3.862 1.582l-16.157 21.832a4.024 4.024 0 01-5.599.863l-5.891-4.275a4.028 4.028 0 01-.877-5.649l21.65-29.397a4.025 4.025 0 013.831-1.595l36.198 5.366a4.027 4.027 0 013.435 3.985v9.698a2.348 2.348 0 01-2.713 2.321l-30.015-4.731zm108.956 65.684a4.027 4.027 0 012.317 3.647v31.486a4.027 4.027 0 01-4.025 4.028h-7.796a4.027 4.027 0 01-4.025-4.028v-21.107c0-1.56-.901-2.98-2.312-3.644l-40.012-18.845a4.025 4.025 0 00-3.522.044l-37.37 18.774a4.03 4.03 0 00-2.219 3.6v21.178a4.028 4.028 0 01-4.026 4.028h-8.484a4.027 4.027 0 01-4.026-4.028v-30.824a4.03 4.03 0 012.279-3.629l45.765-22.046a4.025 4.025 0 002.279-3.585l.626-57.86a24.202 24.202 0 00-.828-6.542l-4.984-18.528a4.028 4.028 0 012.824-4.931l7.212-1.976a4.025 4.025 0 014.994 3.014l5.406 24.44a24.19 24.19 0 01.57 5.221v56.41c0 1.562.903 2.984 2.317 3.647l47.04 22.056z" fill="#86CCFF" />
</svg>